<svg xmlns="http://www.w3.org/2000/svg" xmlns:xlink="http://www.w3.org/1999/xlink" id="body_1" preserveAspectRatio="xMinYMin meet" viewBox="0 0 793 1121"><defs><clipPath id="1"><path d="M0 841L0 -0.9200439L0 -0.9200439L595.32 -0.9200439L595.32 -0.9200439L595.32 841L595.32 841L0 841z" /></clipPath></defs><g transform="matrix(1.333333 0 0 1.333333 0 0)"><g><g clip-path="url(#1)"><path transform="matrix(1 0 0 -1 0 841)" d="M37.08 753.6L155.16 753.6L155.16 753.6L155.16 753.1201L155.16 753.1201L37.08 753.1201z" stroke="none" fill="#0000FF" fill-rule="winding" /><path transform="matrix(1 0 0 -1 0 841)" d="M33.96 728.76L560.04 728.76L560.04 728.76L560.04 728.28L560.04 728.28L33.96 728.28z" stroke="none" fill="#000000" fill-rule="winding" /><path transform="matrix(1 0 0 -1 0 841)" d="M33.96 645.2401L561.24 645.2401L561.24 645.2401L561.24 644.76L561.24 644.76L33.96 644.76z" stroke="none" fill="#000000" fill-rule="winding" /><path transform="matrix(1 0 0 -1 0 841)" d="M60.36 589.5601L206.88 589.5601L206.88 589.5601L206.88 589.0801L206.88 589.0801L60.36 589.0801z" stroke="none" fill="#0000FF" fill-rule="winding" /><path transform="matrix(1 0 0 -1 0 841)" d="M194.52 530.76L370.92 530.76L370.92 530.76L370.92 530.28L370.92 530.28L194.52 530.28z" stroke="none" fill="#0000FF" fill-rule="winding" /><path transform="matrix(1 0 0 -1 0 841)" d="M33.96 456.36L561.24 456.36L561.24 456.36L561.24 455.8801L561.24 455.8801L33.96 455.8801z" stroke="none" fill="#000000" fill-rule="winding" /></g></g></g></svg>