<svg xmlns="http://www.w3.org/2000/svg" xmlns:xlink="http://www.w3.org/1999/xlink" id="body_3" preserveAspectRatio="xMinYMin meet" viewBox="0 0 793 1121"><defs><clipPath id="1"><path d="M0 841L0 -0.9200439L0 -0.9200439L595.32 -0.9200439L595.32 -0.9200439L595.32 841L595.32 841L0 841z" /></clipPath><clipPath id="2"><path d="M591.48 177.4L595.32 177.4L595.32 177.4L595.32 189.28L595.32 189.28L591.48 189.28z" /></clipPath></defs><g transform="matrix(1.333333 0 0 1.333333 0 0)"><g><g clip-path="url(#1)"><g clip-path="url(#2)"></g><path transform="matrix(1 0 0 -1 0 841)" d="M33.96 653.04L561.24 653.04L561.24 653.04L561.24 652.5601L561.24 652.5601L33.96 652.5601z" stroke="none" fill="#000000" fill-rule="winding" /><path transform="matrix(1 0 0 -1 0 841)" d="M33.96 530.76L561.24 530.76L561.24 530.76L561.24 530.28L561.24 530.28L33.96 530.28z" stroke="none" fill="#000000" fill-rule="winding" /><path transform="matrix(1 0 0 -1 0 841)" d="M33.96 425.52L559.56 425.52L559.56 425.52L559.56 425.04L559.56 425.04L33.96 425.04z" stroke="none" fill="#000000" fill-rule="winding" /><path transform="matrix(1 0 0 -1 0 841)" d="M33.96 252.2401L561.24 252.2401L561.24 252.2401L561.24 251.76L561.24 251.76L33.96 251.76z" stroke="none" fill="#000000" fill-rule="winding" /></g></g></g></svg>